<svg className="i-find" width="41" height="41" viewBox="0 0 41 41" fill="none" xmlns="http://www.w3.org/2000/svg">
    <g clip-path="url(#clip0_328_95)">
    <path d="M6.88375 19.0407L5.91316 17.3596C5.36087 16.403 5.68862 15.1798 6.64521 14.6276L15.1017 9.7452L24.577 4.27462C25.5336 3.72233 26.7568 4.05008 27.3091 5.00667L28.2797 6.68778M6.88375 19.0407L14.4426 32.133C14.9949 33.0896 16.218 33.4173 17.1746 32.865L35.1064 22.5121C36.063 21.9598 36.3908 20.7366 35.8385 19.78L28.2797 6.68778M6.88375 19.0407L14.478 20.4297L19.8745 21.6635C19.9286 21.6759 19.9836 21.6839 20.039 21.6875V21.6875C21.2739 21.7671 22.4388 21.1075 23.0057 20.0074L23.1935 19.643L25.176 14.2532L28.2797 6.68778M5.83661 23.1094L12.366 34.4187C13.4706 36.3318 15.917 36.9873 17.8301 35.8828L33.2148 27.0004" stroke="#6E85B2" stroke-width="2" stroke-linecap="round" stroke-linejoin="round"/>
    </g>
    <defs>
    <clipPath id="clip0_328_95">
    <rect width="30" height="30" fill="white" transform="translate(0 15) rotate(-30)"/>
    </clipPath>
    </defs>
</svg>