<svg className="i-find" width="41" height="41" viewBox="0 0 41 41" fill="none" xmlns="http://www.w3.org/2000/svg">
    <g clip-path="url(#clip0_328_100)">
    <path fill-rule="evenodd" clip-rule="evenodd" d="M5.92016 11.8855C6.20932 11.685 7.76852 10.7774 13.1107 7.69309L17.2755 5.28854C20.28 3.56088 20.465 3.487 21.0829 3.24038L21.1187 3.22608C22.4551 2.69173 23.7745 2.58606 25.0879 2.90587C25.8257 3.08844 26.4102 3.3462 27.0496 3.77407C27.8298 4.29724 28.4048 4.88638 29.0787 5.86721C29.2233 6.07766 31.2566 9.5813 33.2834 13.0919C35.3099 16.6018 37.3318 20.1207 37.4418 20.3511C37.9458 21.4083 38.1719 22.2067 38.2382 23.1237C38.37 24.9476 37.7005 26.7198 36.3957 28.0006C35.9226 28.4653 35.4587 28.8232 34.6162 29.3639C34.3163 29.5581 31.0867 31.4279 27.8548 33.2938C24.623 35.1597 21.3874 37.0147 21.0626 37.1838C20.2942 37.5802 19.6684 37.8418 19.0625 38.0105C17.3118 38.4964 15.4096 38.1881 13.9212 37.1736C13.143 36.644 12.5882 36.0695 11.8837 35.0538C11.6832 34.7655 10.7761 33.2081 7.6943 27.8702C7.31671 27.2162 6.9738 26.6229 6.66209 26.0835C6.11666 25.1398 5.66676 24.3613 5.29373 23.7123C3.56394 20.7046 3.49105 20.5219 3.2431 19.9005C3.23885 19.8898 3.23455 19.8791 3.23019 19.8681C2.69672 18.5328 2.59014 17.2118 2.91545 15.9003C3.09444 15.1807 3.35581 14.5903 3.76436 13.9752C4.29393 13.1761 4.87647 12.6096 5.92016 11.8855ZM15.0366 11.0424C12.4708 12.5238 12.1553 12.7209 11.174 13.3486C10.1948 13.9753 9.60022 14.5309 9.1344 15.1114C8.65235 15.7114 8.31162 16.3385 8.08979 17.167C7.86745 17.9956 7.84897 18.709 7.96552 19.47C8.07823 20.2061 8.31528 20.9849 8.85046 22.0164C9.38721 23.0501 9.56142 23.3792 11.0428 25.945C12.5241 28.5108 12.7209 28.8252 13.3484 29.8066C13.9753 30.7856 14.5309 31.3802 15.1112 31.8461C15.7114 32.3281 16.3385 32.6688 17.167 32.8907C17.9954 33.1131 18.7093 33.1324 19.4696 33.0151C20.2056 32.9017 20.9842 32.6645 22.0164 32.13C23.0506 31.594 23.3789 31.4194 25.9445 29.9382C28.5105 28.4567 28.825 28.2602 29.8063 27.6325C30.7855 27.0057 31.3808 26.4497 31.8471 25.869C32.3289 25.2691 32.6684 24.6416 32.8899 23.813C33.1123 22.9845 33.1307 22.271 33.0142 21.5101C32.8995 20.7751 32.6625 19.9963 32.1292 18.9637C31.5927 17.9298 31.4191 17.6018 29.9377 15.036C28.4563 12.4702 28.2586 12.155 27.6315 11.1734C27.0036 10.1949 26.4478 9.60042 25.8687 9.13381C25.2679 8.65221 24.6408 8.31147 23.8121 8.08976C22.9832 7.86765 22.2713 7.84826 21.5101 7.96624C20.7729 8.08034 19.9941 8.3177 18.9617 8.85233C17.9275 9.38829 17.6002 9.56229 15.0336 11.0441L15.0366 11.0424ZM15.172 13.2343C15.3364 13.139 15.5135 13.0369 15.7046 12.9266L16.0195 12.7449C18.542 11.2886 18.8462 11.125 19.8685 10.5952C20.8139 10.1055 21.4027 9.97075 21.8104 9.90779C22.3502 9.82448 22.7827 9.8477 23.3041 9.98757C23.8256 10.1273 24.2122 10.3241 24.6383 10.6659C24.9597 10.9238 25.4024 11.3348 25.9762 12.2317C26.5964 13.2015 26.779 13.495 28.2347 16.0163C29.6904 18.5376 29.8533 18.8425 30.383 19.8646C30.8727 20.81 31.0074 21.3988 31.0701 21.8061C31.1535 22.3458 31.1296 22.7782 30.9897 23.2996C30.85 23.8211 30.6542 24.2071 30.312 24.633C30.0544 24.9549 29.6427 25.3973 28.7459 25.9713C27.7761 26.5915 27.4826 26.7741 24.9601 28.2305C22.4374 29.6869 22.1328 29.8497 21.1107 30.3794C20.165 30.8687 19.5762 31.0035 19.1683 31.0665C18.6286 31.1498 18.1955 31.127 17.6739 30.9872C17.1523 30.8475 16.7663 30.6515 16.34 30.3095C16.0186 30.0515 15.5759 29.6406 15.0021 28.7436C14.3819 27.7739 14.2001 27.4799 12.7435 24.957C11.2869 22.4341 11.1241 22.1313 10.5944 21.1092C10.1047 20.1638 9.96998 19.575 9.90702 19.1673C9.82371 18.6276 9.84699 18.1942 9.98674 17.6727C10.1265 17.1511 10.3232 16.7646 10.665 16.3384C10.9231 16.0162 11.3345 15.5739 12.2313 14.9998C13.0801 14.4573 13.411 14.2505 15.1706 13.2319L15.172 13.2343ZM21.9682 11.402C21.3423 11.7634 21.1274 12.5638 21.4888 13.1899C21.8502 13.8158 22.6512 14.0304 23.2771 13.669C23.903 13.3077 24.1176 12.5067 23.7563 11.8808C23.3949 11.2549 22.5939 11.0403 21.968 11.4016L21.9682 11.402ZM17.6898 15.6384C15.0106 17.1853 14.0925 20.6118 15.6394 23.2911C17.1863 25.9705 20.6123 26.8876 23.2917 25.3407C25.9711 23.7938 26.889 20.3686 25.342 17.6893C23.7951 15.0099 20.3692 14.0914 17.6898 15.6384ZM18.6729 17.3408C20.4121 16.3367 22.6361 16.9324 23.6403 18.6718C24.6444 20.4109 24.0484 22.6351 22.3093 23.6391C20.57 24.6433 18.346 24.0473 17.3419 22.3081C16.3377 20.5688 16.9336 18.345 18.6729 17.3408Z" fill="#6E85B2"/>
    </g>
    <defs>
    <clipPath id="clip0_328_100">
    <rect width="30.0009" height="30" fill="white" transform="translate(0 15) rotate(-30)"/>
    </clipPath>
    </defs>
</svg>