<svg className="i-find" width="41" height="41" viewBox="0 0 41 41" fill="none" xmlns="http://www.w3.org/2000/svg">
    <g clip-path="url(#clip0_328_98)">
    <path d="M13.8575 17.3291L18.8463 14.4488C19.049 14.3318 19.3142 14.4131 19.44 14.6309L20.3877 16.2725C20.5175 15.5611 20.7805 14.8285 21.2088 14.1122C21.7721 13.1616 22.6347 12.2616 23.8429 11.564C26.618 9.96184 28.8247 9.94967 30.6907 10.9495C32.5266 11.9331 33.9927 13.8785 35.3564 16.2404L40.7432 25.5707C40.869 25.7884 40.8068 26.0588 40.6041 26.1758L35.4049 29.1776C35.2022 29.2946 34.937 29.2133 34.8112 28.9955L30.0337 20.7205C29.4872 19.7741 28.8508 18.6898 28.0622 18.0619C27.3482 17.4913 26.4619 17.2883 25.3161 17.9499C24.1156 18.643 23.7034 19.4952 23.7228 20.4109C23.743 21.3819 24.2442 22.4661 24.8487 23.513L29.7085 31.9304C29.8342 32.1482 29.772 32.4186 29.5694 32.5356L24.3701 35.5374C24.1674 35.6544 23.9022 35.573 23.7765 35.3553L13.7088 17.9175C13.583 17.6997 13.6452 17.4293 13.8479 17.3123L13.8575 17.3291ZM18.9345 15.4476L14.6784 17.9048L24.2916 34.5553L28.7503 31.9811L24.1178 23.9573C23.4409 22.7848 22.8905 21.5614 22.8612 20.3946C22.8311 19.1724 23.3541 18.0441 24.8586 17.1755C26.3786 16.2979 27.5758 16.5894 28.5633 17.3817C29.4887 18.1205 30.1735 19.2885 30.7634 20.3103L35.3137 28.1917L39.7803 25.6129L34.6207 16.6763C33.3393 14.4568 31.9739 12.6319 30.3312 11.7489C28.7186 10.882 26.7841 10.9156 24.2897 12.3558C23.2062 12.9814 22.4411 13.7804 21.9424 14.6267C21.339 15.6339 21.1168 16.6891 21.1529 17.5617C21.1582 17.715 21.0896 17.8662 20.9493 17.9472L20.8792 17.9877C20.6765 18.1048 20.4112 18.0234 20.2855 17.8056L18.9267 15.4521L18.9345 15.4476ZM8.05007 14.741C8.57715 15.6539 8.70805 16.6727 8.49498 17.5998C8.28486 18.514 7.73075 19.3364 6.8811 19.827C6.03144 20.3175 5.05476 20.3901 4.14536 20.1111C3.24859 19.8359 2.41909 19.2093 1.89201 18.2964C1.36493 17.3834 1.23402 16.3646 1.4471 15.4375C1.65722 14.5233 2.21133 13.7009 3.06098 13.2104C3.91064 12.7198 4.88731 12.6473 5.79672 12.9263C6.69349 13.2014 7.52299 13.8281 8.05007 14.741ZM7.65652 17.3357C7.81633 16.6404 7.71869 15.8592 7.31734 15.164C6.91598 14.4689 6.28828 13.9937 5.60623 13.7845C4.92418 13.5752 4.17514 13.628 3.52816 14.0015C2.88117 14.3751 2.46096 14.9974 2.30115 15.6927C2.14134 16.388 2.23898 17.1691 2.64033 17.8643C3.04169 18.5595 3.66939 19.0346 4.35144 19.2439C5.03349 19.4531 5.78252 19.4004 6.42951 19.0268C7.0765 18.6533 7.49671 18.031 7.65652 17.3357ZM4.84166 22.5232L10.2514 19.3999C10.4541 19.2829 10.7193 19.3643 10.845 19.582L20.9127 37.0198C21.0385 37.2376 20.9763 37.508 20.7736 37.625L15.3639 40.7483C15.1612 40.8653 14.896 40.7839 14.7703 40.5661L4.70257 23.1284C4.57685 22.9106 4.63899 22.6402 4.84166 22.5232ZM10.3396 20.3987L5.66258 23.099L15.2757 39.7495L19.9527 37.0492L10.3396 20.3987Z" fill="#6E85B2" stroke="#6E85B2"/>
    </g>
    <defs>
    <clipPath id="clip0_328_98">
    <rect width="30" height="30" fill="white" transform="translate(0 15) rotate(-30)"/>
    </clipPath>
    </defs>
</svg>