<svg width="40" height="40" viewBox="0 0 40 40" fill="none" xmlns="http://www.w3.org/2000/svg">
    <path
        d="M26.8999 13.1202C29.0482 13.1202 31.1084 13.9736 32.6275 15.4926C34.1465 17.0117 34.9999 19.0719 34.9999 21.2202V30.6702H29.5999V21.2202C29.5999 20.5041 29.3154 19.8173 28.8091 19.311C28.3028 18.8046 27.616 18.5202 26.8999 18.5202C26.1838 18.5202 25.4971 18.8046 24.9907 19.311C24.4844 19.8173 24.1999 20.5041 24.1999 21.2202V30.6702H18.7999V21.2202C18.7999 19.0719 19.6533 17.0117 21.1724 15.4926C22.6914 13.9736 24.7517 13.1202 26.8999 13.1202V13.1202Z"
        stroke="#FFD765" strokeWidth="1.6" strokeLinecap="round" strokeLinejoin="round" />
    <path d="M13.4 14.4699H8V30.6699H13.4V14.4699Z" stroke="#FFD765" strokeWidth="1.6" strokeLinecap="round"
        strokeLinejoin="round" />
    <path
        d="M10.7 11.23C12.1912 11.23 13.4 10.0212 13.4 8.53001C13.4 7.03885 12.1912 5.83002 10.7 5.83002C9.20883 5.83002 8 7.03885 8 8.53001C8 10.0212 9.20883 11.23 10.7 11.23Z"
        stroke="#FFD765" strokeWidth="1.6" strokeLinecap="round" strokeLinejoin="round" />
</svg>