<svg width="40" height="40" viewBox="0 0 40 40" fill="none" xmlns="http://www.w3.org/2000/svg">
    <g clip-path="url(#clip0_2_221)">
        <path d="M25.3379 33.04V28.2473C25.3843 27.6568 25.3045 27.0631 25.1038 26.5058C24.9031 25.9485 24.5861 25.4403 24.1738 25.015C28.0624 24.5816 32.1492 23.1079 32.1492 16.3461C32.1489 14.6171 31.4838 12.9543 30.2916 11.702C30.8561 10.1893 30.8162 8.51724 30.1801 7.03318C30.1801 7.03318 28.7188 6.59973 25.3379 8.86604C22.4994 8.09676 19.5074 8.09676 16.6689 8.86604C13.2881 6.59973 11.8267 7.03318 11.8267 7.03318C11.1906 8.51724 11.1507 10.1893 11.7153 11.702C10.5141 12.9636 9.84837 14.6414 9.85763 16.3833C9.85763 23.0955 13.9444 24.5692 17.8331 25.0522C17.4256 25.4732 17.1114 25.9753 16.9108 26.5258C16.7102 27.0763 16.6278 27.6629 16.6689 28.2473V33.04M16.6689 29.3247C10.4768 31.1824 10.4768 26.2287 8 25.6095L16.6689 29.3247Z" stroke="#FFD765" stroke-width="2" stroke-linecap="round" stroke-linejoin="round"/>
        <path d="M20 1C30.4934 1 39 9.50659 39 20C39 30.4934 30.4934 39 20 39C9.50659 39 1 30.4934 1 20C1 9.50659 9.50659 1 20 1Z" stroke="#FFD765" stroke-width="2" stroke-linecap="round" stroke-linejoin="round"/>
    </g>
    <defs>
        <clipPath id="clip0_2_221">
            <rect width="40" height="40" fill="white"/>
        </clipPath>
    </defs>
</svg>
