<svg width="40" height="40" viewBox="0 0 40 40" fill="none" xmlns="http://www.w3.org/2000/svg">
<path d="M20 1C30.4934 1 39 9.50659 39 20C39 30.4934 30.4934 39 20 39C9.50659 39 1 30.4934 1 20C1 9.50659 9.50659 1 20 1Z" fill="#FFD765"/>
<path d="M24.488 15.3598C26.3621 15.3598 28.1594 16.1043 29.4846 17.4295C30.8098 18.7547 31.5543 20.552 31.5543 22.4261V30.6701H26.8434V22.4261C26.8434 21.8014 26.5953 21.2023 26.1535 20.7606C25.7118 20.3188 25.1127 20.0707 24.488 20.0707C23.8633 20.0707 23.2642 20.3188 22.8224 20.7606C22.3807 21.2023 22.1326 21.8014 22.1326 22.4261V30.6701H17.4217V22.4261C17.4217 20.552 18.1662 18.7547 19.4914 17.4295C20.8166 16.1043 22.6139 15.3598 24.488 15.3598V15.3598Z" stroke="black" strokeWidth="1.6" strokeLinecap="round" strokeLinejoin="round"/>
<path d="M12.7109 16.5373H8V30.6699H12.7109V16.5373Z" stroke="black" strokeWidth="1.6" strokeLinecap="round" strokeLinejoin="round"/>
<path d="M10.3554 13.7109C11.6563 13.7109 12.7109 12.6563 12.7109 11.3554C12.7109 10.0546 11.6563 9 10.3554 9C9.05456 9 8 10.0546 8 11.3554C8 12.6563 9.05456 13.7109 10.3554 13.7109Z" stroke="black" strokeWidth="1.6" strokeLinecap="round" strokeLinejoin="round"/>
</svg>
