<svg width="40" height="40" viewBox="0 0 40 40" fill="none" xmlns="http://www.w3.org/2000/svg">
    <path
        d="M26.5385 36V30.1104C26.5962 29.3847 26.4971 28.6552 26.2477 27.9703C25.9984 27.2854 25.6045 26.6609 25.0923 26.1383C29.9231 25.6056 35 23.7946 35 15.4852C34.9996 13.3604 34.1734 11.3171 32.6923 9.77822C33.3936 7.91927 33.344 5.8645 32.5538 4.04078C32.5538 4.04078 30.7385 3.50812 26.5385 6.29314C23.0123 5.34779 19.2954 5.34779 15.7692 6.29314C11.5692 3.50812 9.75385 4.04078 9.75385 4.04078C8.96366 5.8645 8.91407 7.91927 9.61538 9.77822C8.12327 11.3285 7.29619 13.3903 7.30769 15.5309C7.30769 23.7794 12.3846 25.5904 17.2154 26.184C16.7092 26.7013 16.3189 27.3184 16.0697 27.9949C15.8205 28.6713 15.7182 29.3922 15.7692 30.1104V36M15.7692 31.4344C8.07692 33.7172 8.07692 27.6297 5 26.8688L15.7692 31.4344Z"
        stroke="#FFD765" strokeWidth="2" strokeLinecap="round" strokeLinejoin="round" />
</svg>