<svg width="40" height="40" viewBox="0 0 40 40" fill="none" xmlns="http://www.w3.org/2000/svg">
<circle cx="20" cy="20" r="19" fill="#FFD765" stroke="#FFD765" strokeWidth="2"/>
<path d="M16.6154 29.2904C10.4615 31.1452 10.4615 26.1992 8 25.5809L16.6154 29.2904ZM25.2308 33V28.2147C25.2769 27.6251 25.1976 27.0323 24.9982 26.4759C24.7987 25.9194 24.4836 25.412 24.0738 24.9874C27.9385 24.5546 32 23.0831 32 16.3317C31.9997 14.6054 31.3387 12.9452 30.1538 11.6948C30.7149 10.1844 30.6752 8.51491 30.0431 7.03313C30.0431 7.03313 28.5908 6.60035 25.2308 8.86318C22.4099 8.09508 19.4363 8.09508 16.6154 8.86318C13.2554 6.60035 11.8031 7.03313 11.8031 7.03313C11.1709 8.51491 11.1313 10.1844 11.6923 11.6948C10.4986 12.9544 9.83695 14.6296 9.84615 16.3688C9.84615 23.0708 13.9077 24.5422 17.7723 25.0245C17.3674 25.4448 17.0551 25.9462 16.8558 26.4958C16.6564 27.0455 16.5745 27.6311 16.6154 28.2147V33" fill="#FFD765"/>
<path d="M25.2308 33V28.2147C25.2769 27.6251 25.1976 27.0323 24.9982 26.4759C24.7987 25.9194 24.4836 25.412 24.0738 24.9874C27.9385 24.5546 32 23.0831 32 16.3317C31.9997 14.6054 31.3387 12.9452 30.1538 11.6948C30.7149 10.1844 30.6752 8.51491 30.0431 7.03313C30.0431 7.03313 28.5908 6.60035 25.2308 8.86318C22.4099 8.09508 19.4363 8.09508 16.6154 8.86318C13.2554 6.60035 11.8031 7.03313 11.8031 7.03313C11.1709 8.51491 11.1313 10.1844 11.6923 11.6948C10.4986 12.9544 9.83695 14.6296 9.84615 16.3688C9.84615 23.0708 13.9077 24.5422 17.7723 25.0245C17.3674 25.4448 17.0551 25.9462 16.8558 26.4958C16.6564 27.0455 16.5745 27.6311 16.6154 28.2147V33M16.6154 29.2904C10.4615 31.1452 10.4615 26.1992 8 25.5809L16.6154 29.2904Z" stroke="black" strokeWidth="2" strokeLinecap="round" strokeLinejoin="round"/>
</svg>
